<svg xmlns="http://www.w3.org/2000/svg" viewBox="0 0 140.19 187.35"><defs><style>.cls-1{fill:#ff4200;}</style></defs><g id="Camada_2" data-name="Camada 2"><g id="Camada_1-2" data-name="Camada 1"><path class="cls-1" d="M42.74,22.74v4.33q6.13-4,6.13-9.38a29.28,29.28,0,0,0-.54-4.52,28.92,28.92,0,0,1-.54-4.51,11.47,11.47,0,0,1,2.53-7.22H50q-8.67,5.07-8.67,10.11A29.6,29.6,0,0,0,42,17,31.15,31.15,0,0,1,42.74,22.74Z"/><path class="cls-1" d="M130.44,40.06a33.5,33.5,0,0,1,.36,4.7q0,9.74-10.1,9.74-10.47,0-11.91-11.91-1.46-13.35-7.22-15.16,0,13.37-14.08,13.35A18.88,18.88,0,0,1,75,36.45a13.46,13.46,0,0,1-5.23-10.82Q69.81,14.08,85.33,0,68.73,7.57,53.2,31.4,39.49,52.7,32.63,52.69t-6.86-7.57q0-6.51,7.22-14.44Q18.56,40.79,12.42,51.25c-4.09,7-5,16.17-4.72,27.24v2.89l0,9c0,.47-.09,1-.12,1.42S7.46,93,7.4,93.51c-.24,2.35-.72,4.77-1.19,7.1s-.89,4.46-1.16,6.71a28.23,28.23,0,0,0,.41,7.13,25.4,25.4,0,0,1,.4,6.69c-.27,2.21-.66,4.48-1,6.66-.41,2.35-.83,4.77-1.1,7.17A33,33,0,0,1,2,141.56a33.14,33.14,0,0,0-1.85,7.25A36.54,36.54,0,0,0,1.25,160.6a30,30,0,0,0,5,10.48,35.79,35.79,0,0,0,8.23,8.15l.84.62c2.7,2,5.48,4,8.63,5l1.65.52c2.9.93,6.19,2,9.37,2h0c2.54,0,5-1.15,7.44-2.25S47,183,49.11,183h0a19.56,19.56,0,0,1,6.68,1.71,21.59,21.59,0,0,0,7.34,1.83h0a35.5,35.5,0,0,0,7.26-1,33.73,33.73,0,0,1,6.8-1h0A23.54,23.54,0,0,1,84,185.9a25.25,25.25,0,0,0,7.21,1.45h.17c3.3,0,6-2,8.57-3.82a21,21,0,0,1,4.38-2.65c1.09-.42,2.19-.78,3.27-1.12,3.19-1,6.49-2.09,9.14-4.7l.27-.26c3-3,6.49-6.37,8.85-10.8a54.14,54.14,0,0,0,3.16-7.93l.71-2.07c.37-1.05-.79-1.52-2-2l-.72-.3a20.89,20.89,0,0,1,2.47-4.75c1.43-2.3,2.91-4.68,3.17-7.07.25-2.23.56-4.45.87-6.67.26-1.89.53-3.78.75-5.67a16.67,16.67,0,0,0-.95-6.53,15.17,15.17,0,0,1-.9-5.81,31.94,31.94,0,0,1,1.52-5.93,32.81,32.81,0,0,0,1.61-6.42,36.21,36.21,0,0,1,1.27-5.58A32.85,32.85,0,0,0,138,91.19c1.68-5.14,2.16-26.22,2.16-26.22Q140.19,48.36,130.44,40.06Zm-7,67.3c-.23,2.11-1.6,4.37-2.93,6.55-1.41,2.34-2.87,4.75-3.17,7.24-.26,2.19-.57,4.39-.88,6.58-.34,2.4-.67,4.81-1,7.21a20.46,20.46,0,0,0,.92,7.3,19.27,19.27,0,0,1,.9,6.51c-.51,5.07-3.78,9.37-6.68,13.17l-.13.18c-2.83,3.7-6.58,5.15-12,6.94a17,17,0,0,0-3.19,1.59,9.06,9.06,0,0,1-4.24,1.65,53.33,53.33,0,0,1-6.79-.59,50.7,50.7,0,0,0-6.9-.62h-.07c-2.26,0-4.52.06-6.78.12s-4.7.11-7.05.11a50.4,50.4,0,0,0-7.06.7,47.45,47.45,0,0,1-6.8.67h0a34.29,34.29,0,0,1-6.69-.9,35.93,35.93,0,0,0-7-.94h-.07c-1.37,0-2.79.09-4.15.17-4,.25-7.75.48-10.32-1.37-3.49-2.51-7.71-7-9-11.88-.43-1.58.05-3.66.52-5.68a30.14,30.14,0,0,0,.63-3.32A28.36,28.36,0,0,1,15.29,142a32.44,32.44,0,0,0,1.93-6.94,19.77,19.77,0,0,0-.95-7.17,17.72,17.72,0,0,1-.89-6.53,30.3,30.3,0,0,1,1.9-6.63,31.38,31.38,0,0,0,2-7.13c.53-4.59,1-9.18,1.44-13.78s2.3-8.77,6-13.36c2.46-3.06,5.21-4.38,8.38-5.92l.42-.2a19.63,19.63,0,0,0,4-3c2-1.74,4-3.54,6.21-3.54h0a18.9,18.9,0,0,1,6.51,1.68,20.37,20.37,0,0,0,7.18,1.81h0a33.89,33.89,0,0,0,7.15-1,33,33,0,0,1,6.78-1h0A21.93,21.93,0,0,1,80,70.7a23.37,23.37,0,0,0,7.14,1.52h0c2.49,0,5-1.08,7.37-2.13s4.53-2,6.64-2h0a14,14,0,0,1,5,1,45.88,45.88,0,0,1,7.19,4.51c3.84,2.78,5.84,7.2,7.11,12.26a24.25,24.25,0,0,1,1,7.18h0c0,.17,0,.34,0,.51a20.61,20.61,0,0,0,1,7.11A18.86,18.86,0,0,1,123.42,107.36Z"/><path class="cls-1" d="M112.39,80.19a7.57,7.57,0,0,0-5.63-2.52h0c-5,0-9.91,4.6-10.39,9.61a6.67,6.67,0,0,0,1.71,5.26s.1.09.15.14a8.18,8.18,0,0,0,.74,1,8.6,8.6,0,0,0,6.36,2.75h0a9.91,9.91,0,0,0,9.73-8.91,8.78,8.78,0,0,0-1.77-6.16A10.13,10.13,0,0,0,112.39,80.19Z"/><path class="cls-1" d="M100.47,108.67c-.28-.93-.53-1.9-.78-2.87-.84-3.27-1.7-6.64-3.9-9.09a10.29,10.29,0,0,0-4.17-2.64,43.88,43.88,0,0,0-5.07-2.33l-2.18-.91A31.3,31.3,0,0,0,75,88.28,15.28,15.28,0,0,0,72,88c-1,0-1.92,0-2.89-.07-3.55-.12-7.24-.25-10.55,1.08-4.3,1.73-8.27,5-11.58,8-3.1,2.81-7,6.57-9.21,10.78A16.79,16.79,0,0,0,36.12,114a25,25,0,0,0-2.18,7.15,32.46,32.46,0,0,0,1.39,13.1c.85,2.82,2.78,4.91,4.76,6.88a23.51,23.51,0,0,0,2.45,3.36,22.13,22.13,0,0,0,5.27,4.23,21.42,21.42,0,0,0,4.76,2.89l1.92.87c3.17,1.46,6.46,3,10.29,3h0a11.77,11.77,0,0,0,1.78-.15,36.44,36.44,0,0,0,11.49-2.57,19.7,19.7,0,0,0,5.88-4,19.79,19.79,0,0,0,5.79-3.46c3.26-3,6.9-6.55,9.13-10.72a37.44,37.44,0,0,0,3.76-13.23c.46-3.92-.64-7.45-1.71-10.85C100.79,109.86,100.65,109.26,100.47,108.67ZM88.29,120.18l-.18,1.44A27.61,27.61,0,0,1,86.23,130c-.34.57-.66,1.14-1,1.68s-.65.89-1,1.3a25.63,25.63,0,0,1-6.67,4.47l-1.42.76-1.52.85c-1.1.62-2.21,1.24-3.34,1.77a30.68,30.68,0,0,1-5.25.38,17.78,17.78,0,0,1-9.58-2.72,16.24,16.24,0,0,1-6.25-7.28l-.38-.81a26.94,26.94,0,0,1-2.08-5.46,19,19,0,0,1,0-3.54,23.17,23.17,0,0,1,4.3-10.21c2.16-3.11,5.51-4.93,8.75-6.69a20.15,20.15,0,0,1,10-2.91h.06c.8,0,1.63,0,2.45,0l1.67,0A21.45,21.45,0,0,1,80.5,104a16.36,16.36,0,0,1,6.28,7.32l.17.37A39,39,0,0,1,88.71,116C88.65,117.31,88.47,118.73,88.29,120.18Z"/></g></g></svg>